<svg width="17" height="19" viewBox="0 0 17 19" fill="none" xmlns="http://www.w3.org/2000/svg">
<path d="M2.27778 18.3137C1.78889 18.3137 1.37022 18.1376 1.02178 17.7854C0.673926 17.4326 0.5 17.0087 0.5 16.5137V3.91372C0.5 3.41872 0.673926 2.99512 1.02178 2.64292C1.37022 2.29012 1.78889 2.11372 2.27778 2.11372H3.16667V0.313721H4.94444V2.11372H12.0556V0.313721H13.8333V2.11372H14.7222C15.2111 2.11372 15.6298 2.29012 15.9782 2.64292C16.3261 2.99512 16.5 3.41872 16.5 3.91372V16.5137C16.5 17.0087 16.3261 17.4326 15.9782 17.7854C15.6298 18.1376 15.2111 18.3137 14.7222 18.3137H2.27778ZM2.27778 16.5137H14.7222V7.51372H2.27778V16.5137ZM2.27778 5.71372H14.7222V3.91372H2.27778V5.71372Z" fill="white"/>
</svg>
