<svg width="28" height="27" viewBox="0 0 28 27" fill="none" xmlns="http://www.w3.org/2000/svg">
<path d="M11.7543 1.52341C12.353 -0.319214 14.9599 -0.319208 15.5586 1.52341L17.3961 7.17864C17.6638 8.00268 18.4317 8.5606 19.2982 8.5606L25.2444 8.5606C27.1819 8.5606 27.9874 11.0398 26.42 12.1786L21.6094 15.6738C20.9084 16.183 20.6151 17.0858 20.8828 17.9098L22.7203 23.5651C23.319 25.4077 21.2101 26.9399 19.6426 25.8011L14.832 22.306C14.131 21.7967 13.1819 21.7967 12.4809 22.306L7.67026 25.8011C6.10283 26.9399 3.99387 25.4077 4.59258 23.5651L6.43007 17.9098C6.69782 17.0858 6.4045 16.183 5.70353 15.6738L0.892904 12.1786C-0.674523 11.0398 0.131033 8.5606 2.06848 8.5606L8.01473 8.5606C8.88119 8.5606 9.6491 8.00268 9.91685 7.17864L11.7543 1.52341Z" fill="#A0916F"/>
</svg>
