<svg width="67" height="68" viewBox="0 0 67 68" fill="none" xmlns="http://www.w3.org/2000/svg">
<ellipse cx="33.5" cy="33.89" rx="33.5" ry="33.89" fill="#789744"/>
<path d="M32.1327 19.8824C32.495 18.7673 34.0726 18.7673 34.4349 19.8824L36.9523 27.6302C37.1144 28.1289 37.5791 28.4665 38.1034 28.4665H46.2499C47.4224 28.4665 47.9099 29.9669 46.9613 30.6561L40.3707 35.4445C39.9465 35.7527 39.769 36.299 39.931 36.7977L42.4484 44.5454C42.8107 45.6606 41.5344 46.5878 40.5859 45.8987L33.9952 41.1103C33.571 40.8021 32.9966 40.8021 32.5724 41.1103L25.9817 45.8987C25.0332 46.5878 23.7569 45.6606 24.1192 44.5454L26.6366 36.7977C26.7986 36.299 26.6211 35.7527 26.1969 35.4445L19.6063 30.6561C18.6577 29.9669 19.1452 28.4665 20.3177 28.4665H28.4642C28.9885 28.4665 29.4533 28.1289 29.6153 27.6302L32.1327 19.8824Z" fill="white"/>
</svg>
