<svg width="17" height="17" viewBox="0 0 17 17" fill="none" xmlns="http://www.w3.org/2000/svg">
<path d="M15.5667 16.3152C13.6556 16.3152 11.7927 15.893 9.97822 15.0485C8.16311 14.2041 6.5557 13.0781 5.156 11.6707C3.7557 10.2633 2.62978 8.65207 1.77822 6.83696C0.926074 5.02244 0.5 3.15963 0.5 1.24852V0.781852C0.5 0.618889 0.514815 0.463334 0.544444 0.315186H5.74444L6.56667 4.78185L4.03333 7.33741C4.65556 8.40407 5.43719 9.40407 6.37822 10.3374C7.31867 11.2707 8.35185 12.0781 9.47778 12.7596L12.0556 10.1819L16.5 11.0707V16.2707C16.3519 16.2856 16.1963 16.2968 16.0333 16.3045C15.8704 16.3116 15.7148 16.3152 15.5667 16.3152Z" fill="white"/>
</svg>
